<svg version="1.0" xmlns="http://www.w3.org/2000/svg" width="266.667" height="266.667" viewBox="0 0 200 200"><path d="M47.8 47.5c-.2.2-2.9.6-6 .9-12.9 1-21 7.6-23.9 19.3-.7 2.6-2.5 6.3-4.1 8.1-2.4 2.8-2.8 4-2.4 7.4.7 5.9 6 12.9 10.7 14.3 1.3.3 3.9 1.3 5.7 2.1 3.1 1.5 3.2 1.7 3.2 7.7 0 3.4.4 7.9.9 10 1.3 5.6 11.1 18 16.3 20.6 2.4 1.2 5.2 2.7 6.3 3.4 7.2 4.4 9.7 5.6 14.9 7.1 5.4 1.6 15.8 1.8 17.3.3.3-.3 3.3.8 6.6 2.5 6.6 3.3 21.6 8 25.7 8.1 5.6.1 14.8-1.7 19.5-3.8 8.2-3.6 19.5-15.1 19.5-19.8 0-.7.8-2.3 1.7-3.6 3.4-4.9.1-25-4.9-29.3-1.1-1-1.7-2.2-1.3-2.8.3-.5-.1-1-.9-1-.9 0-1.6-.4-1.6-.9 0-1.7-9.6-11.1-14.3-14.1-2.4-1.5-6.1-3.5-8.3-4.5-9.9-4.3-12.2-5.7-15.9-9.5-6.6-6.8-12.3-9.8-22.6-12-5.2-1.1-11-2.7-12.9-3.5-1.9-.8-5.7-2-8.5-2.6-2.7-.7-5.5-1.5-6-2-.6-.4-3.7-1.1-7-1.4-3.3-.4-6.3-.9-6.6-1.1-.3-.2-.8-.1-1.1.1z"/></svg>