<?xml version="1.0" standalone="no"?>
<!DOCTYPE svg PUBLIC "-//W3C//DTD SVG 20010904//EN"
 "http://www.w3.org/TR/2001/REC-SVG-20010904/DTD/svg10.dtd">
<svg version="1.0" xmlns="http://www.w3.org/2000/svg"
 width="200.000000pt" height="200.000000pt" viewBox="0 0 200.000000 200.000000"
 preserveAspectRatio="xMidYMid meet">
<metadata>
Created by potrace 1.14, written by Peter Selinger 2001-2017
</metadata>
<g transform="translate(0.000000,200.000000) scale(0.100000,-0.100000)"
fill="#000000" stroke="none">
<path d="M478 1525 c-2 -2 -29 -6 -60 -9 -129 -10 -210 -76 -239 -193 -7 -26
-25 -63 -41 -81 -24 -28 -28 -40 -24 -74 7 -59 60 -129 107 -143 13 -3 39 -13
57 -21 31 -15 32 -17 32 -77 0 -34 4 -79 9 -100 13 -56 111 -180 163 -206 24
-12 52 -27 63 -34 72 -44 97 -56 149 -71 54 -16 158 -18 173 -3 3 3 33 -8 66
-25 66 -33 216 -80 257 -81 56 -1 148 17 195 38 82 36 195 151 195 198 0 7 8
23 17 36 34 49 1 250 -49 293 -11 10 -17 22 -13 28 3 5 -1 10 -9 10 -9 0 -16
4 -16 9 0 17 -96 111 -143 141 -24 15 -61 35 -83 45 -99 43 -122 57 -159 95
-66 68 -123 98 -226 120 -52 11 -110 27 -129 35 -19 8 -57 20 -85 26 -27 7
-55 15 -60 20 -6 4 -37 11 -70 14 -33 4 -63 9 -66 11 -3 2 -8 1 -11 -1z"/>
</g>
</svg>
